<svg xmlns="http://www.w3.org/2000/svg" xmlns:xlink="http://www.w3.org/1999/xlink" width="60" zoomAndPan="magnify" viewBox="0 0 45 44.999999" height="60" preserveAspectRatio="xMidYMid meet" version="1.0"><defs><clipPath id="e8513825d3"><path d="M 4.714844 26 L 40.714844 26 L 40.714844 44 L 4.714844 44 Z M 4.714844 26 " clip-rule="nonzero"/></clipPath><clipPath id="6482911ac4"><path d="M 4.714844 16 L 40.714844 16 L 40.714844 34 L 4.714844 34 Z M 4.714844 16 " clip-rule="nonzero"/></clipPath><clipPath id="10fbaf785f"><path d="M 4.714844 1 L 40.714844 1 L 40.714844 24 L 4.714844 24 Z M 4.714844 1 " clip-rule="nonzero"/></clipPath></defs><g clip-path="url(#e8513825d3)"><path fill="#595959" d="M 22.714844 43.941406 C 22.445312 43.941406 22.175781 43.871094 21.945312 43.730469 L 5.328125 33.664062 C 4.945312 33.429688 4.714844 33.039062 4.714844 32.625 C 4.71875 32.207031 4.949219 31.820312 5.332031 31.589844 L 13.640625 26.597656 C 14.277344 26.214844 15.136719 26.367188 15.558594 26.941406 C 15.984375 27.515625 15.8125 28.289062 15.175781 28.671875 L 8.589844 32.632812 L 22.714844 41.191406 L 36.84375 32.632812 L 30.253906 28.671875 C 29.621094 28.289062 29.449219 27.515625 29.871094 26.941406 C 30.296875 26.367188 31.15625 26.214844 31.792969 26.597656 L 40.097656 31.589844 C 40.484375 31.820312 40.714844 32.207031 40.714844 32.625 C 40.71875 33.039062 40.488281 33.429688 40.105469 33.664062 L 23.488281 43.730469 C 23.253906 43.871094 22.984375 43.941406 22.714844 43.941406 Z M 22.714844 43.941406 " fill-opacity="1" fill-rule="nonzero"/></g><g clip-path="url(#6482911ac4)"><path fill="#be1e2e" d="M 22.714844 33.839844 C 22.449219 33.839844 22.179688 33.769531 21.949219 33.636719 L 5.332031 23.988281 C 4.949219 23.765625 4.714844 23.390625 4.714844 22.988281 C 4.714844 22.582031 4.949219 22.207031 5.332031 21.984375 L 13.640625 17.160156 C 14.277344 16.792969 15.136719 16.941406 15.558594 17.496094 C 15.984375 18.050781 15.8125 18.796875 15.175781 19.167969 L 8.597656 22.988281 L 22.714844 31.183594 L 36.835938 22.988281 L 30.253906 19.167969 C 29.621094 18.796875 29.449219 18.046875 29.871094 17.496094 C 30.296875 16.941406 31.15625 16.792969 31.792969 17.160156 L 40.097656 21.984375 C 40.484375 22.207031 40.714844 22.582031 40.714844 22.988281 C 40.714844 23.390625 40.484375 23.765625 40.097656 23.988281 L 23.484375 33.636719 C 23.25 33.769531 22.984375 33.839844 22.714844 33.839844 Z M 22.714844 33.839844 " fill-opacity="1" fill-rule="nonzero"/></g><g clip-path="url(#10fbaf785f)"><path fill="#929596" d="M 21.949219 23.503906 C 22.179688 23.640625 22.449219 23.710938 22.714844 23.710938 C 22.984375 23.710938 23.25 23.640625 23.484375 23.503906 L 40.097656 13.636719 C 40.484375 13.40625 40.714844 13.023438 40.714844 12.613281 C 40.71875 12.199219 40.488281 11.816406 40.105469 11.585938 L 23.488281 1.636719 C 23.019531 1.359375 22.410156 1.359375 21.945312 1.636719 L 5.328125 11.585938 C 4.945312 11.816406 4.714844 12.199219 4.714844 12.613281 C 4.71875 13.023438 4.949219 13.40625 5.332031 13.636719 Z M 22.714844 20.996094 L 8.589844 12.605469 L 22.714844 4.148438 L 36.84375 12.605469 Z M 22.714844 20.996094 " fill-opacity="1" fill-rule="evenodd"/></g></svg>