<svg id="Layer_1" data-name="Layer 1" xmlns="http://www.w3.org/2000/svg" viewBox="0 0 1000 1000"><defs><style>.cls-1{fill:#fff;}.cls-2{fill:#585858;}.cls-3,.cls-4,.cls-5{fill:none;stroke-miterlimit:10;stroke-width:17.01px;}.cls-3{stroke:#c52e3b;}.cls-4{stroke:#585858;}.cls-5{stroke:#da707a;}.cls-6{fill:#e7a5aa;}.cls-7{fill:#c52e3b;}.cls-8{fill:#929596;}</style></defs><ellipse class="cls-1" cx="508.13" cy="497.17" rx="448.97" ry="447.2"/><path class="cls-2" d="M382.37,933.94l93,15.06,152.49-12.57c8.27-5.92,65.22-54.27,77.74-66.78,43.09-43,59.91-90.26,68.4-114.94,16-46.52,18-85.79,19-108.59.24-5.39.36-10.48.4-15.22a39.33,39.33,0,0,0-18.76-33.8L582.26,478.74a39.41,39.41,0,0,1-18.76-33.57V419.28a18,18,0,0,1,9.93-16l.12-.06c5.87-3,23.18-11.88,28.73-29.26,1.29-4,3.31-10.71,0-16.93a16,16,0,0,0-2.24-3.17A17.57,17.57,0,0,1,595.58,342l2.12-32.73a96.07,96.07,0,0,0-96.07-96.07h-.49a96.07,96.07,0,0,0-96.07,96.07L407.18,342a17.56,17.56,0,0,1-4.45,11.87,16,16,0,0,0-2.25,3.17c-3.31,6.22-1.29,12.89,0,16.93,5.56,17.38,22.86,26.25,28.74,29.26l.12.06a18,18,0,0,1,9.93,16v25.89a39.43,39.43,0,0,1-18.76,33.57L228.11,597.1a39.33,39.33,0,0,0-18.76,33.8c0,4.74.16,9.83.4,15.22,1,22.8,3,62.07,19,108.59,8.48,24.68,25.3,71.89,68.39,114.94,12.53,12.51,53.6,45.14,61.87,51.06"/><path class="cls-1" d="M501.43,810.65c-42.15-42.45-63.79-83-75.29-110-15.32-36-21.13-68-28.69-109.5A839.62,839.62,0,0,1,386,500l48.77-36.46,66.91,67.18,66.9-67.18L617.11,500a839.62,839.62,0,0,1-11.5,91.1c-7.56,41.54-13.37,73.49-28.69,109.5-11.5,27-33.14,67.6-75.29,110"/><path class="cls-3" d="M766.36,864.28A450.22,450.22,0,0,1,358.7,920"/><path class="cls-4" d="M853.39,208.07A447.95,447.95,0,0,1,957.9,496.19"/><path class="cls-5" d="M65.2,570.07a453.1,453.1,0,0,1-6-73.88A449.29,449.29,0,0,1,853.39,208.07"/><path class="cls-5" d="M946.49,597.25A447.07,447.07,0,0,1,885,741.58c-8.36,12.8-46.69,70.1-118.68,122.7"/><path class="cls-3" d="M282.9,107.48a446.44,446.44,0,0,1,167.23-56.9q6.17-.8,12.38-1.43"/><path class="cls-3" d="M358.7,920a446.82,446.82,0,0,1-87.57-42.17A451.68,451.68,0,0,1,132.06,741.65,446.64,446.64,0,0,1,65.2,570.07"/><path class="cls-3" d="M957.9,496.19a451.11,451.11,0,0,1-11.41,101.06"/><path class="cls-6" d="M899.32,734.88l-15.84-6.7,58-82.82c-.7,2.24-1.75,5.51-3.11,9.42-1.52,4.37-7.71,22.47-22.6,50.9-3.73,7.1-8.5,16.4-15.09,27Z"/><polyline class="cls-7" points="835.53 815.69 829.83 821.39 823.61 827.41 823.61 827.41 808.69 818.15 835.53 815.69"/><path class="cls-6" d="M148.6,213.18,159,227.31c-2.33,3.2-9.28,12.25-13.12,18.13-15.6,23.91-43.83,71.25-58.64,120.73-8.07,27-17.44,64.09-19.33,114l-16.58-8.92c.14-4.1.67-15.58,1.66-24.25,2.78-24.35,6.26-87.76,54.89-172.89,7.55-13.21,17.88-31.41,34.52-53Z"/><path class="cls-8" d="M258.56,879.9l18-8.77-1.56-1c-6.67-4.11-11.86-7.62-15.75-10.32-8.86-6.15-16.76-12.14-25.28-18.79l-4.05-3.17-5.62,17.27c.83.67,1.68,1.32,2.52,2q14.46,11.54,29.11,21Z"/><path class="cls-8" d="M799,142.24v22.29c10.75,9.38,19.27,18,25,23.73s14.57,16,32.29,37.07c.84,1,2.12,2.66,2.91,3.68l4.68-21.51-1.49-1.87c-4.35-5.39-16.09-20-39.45-42.33-5.48-5.23-14.65-13.56-24-21.06Z"/><path class="cls-6" d="M457.28,58.33c31-2.89,55.87-4.37,99.24-.44,2.23.2,4.56.44,6.74.8L571,42.53l-1.24-.2c-9.31-1.24-17-2-22.07-2.44-47-4.14-80-.2-90.3,1.18l-3.06.43-4.23,17.66Z"/><path class="cls-2" d="M105.18,278.51l20.15.9c-4.48,8.11-8.34,14.92-11,20.5-13.39,28.64-17.29,36.56-21.3,48.67-1.44,4.35-2.42,6.41-3,8.72l-15-12.75c1.25-3.52,4.08-10.7,5.47-14.29a339,339,0,0,1,17-37Z"/><path class="cls-8" d="M494.67,549.45l-68.31-66.11c0,1.71,0,11.51,0,14.51.5,22.85,5.62,39.93,8.87,50.49A225.81,225.81,0,0,0,458,598.82Z"/><path class="cls-8" d="M508.32,549.45l68.59-66c0,1.71,0,11.36,0,14.36-.49,22.85-5.62,39.93-8.87,50.49a225.35,225.35,0,0,1-22.75,50.48Z"/><polygon class="cls-8" points="474.32 595.03 501.57 558.62 528.93 595.16 474.32 595.03"/><path class="cls-8" d="M501.82,810.65l1.08-1q2.19-2,4.22-4.2c5.81-6.33,11.64-12.81,17.31-19.6L526,784,504.06,595.1h-4.87L477.27,784l1.55,1.86c5.67,6.79,11.5,13.27,17.31,19.6q2,2.19,4.23,4.2l1.07,1"/></svg>