<svg xmlns="http://www.w3.org/2000/svg" viewBox="0 0 1000 1000"><defs><style>.cls-1{fill:#fff;}.cls-2{fill:#585858;}.cls-3{fill:#da707a;}.cls-4{fill:#c52e3b;}.cls-5{fill:#e7a5aa;}.cls-6{fill:#a4ada7;}.cls-7{fill:#929596;}.cls-8{fill:none;stroke:#c52e3b;stroke-miterlimit:10;stroke-width:17.01px;}</style></defs><g id="Layer_2" data-name="Layer 2"><ellipse class="cls-1" cx="523" cy="497.17" rx="446" ry="447.2"/><path class="cls-2" d="M869.29,781.27c5-6.91,19-23.86,24-31.66,4-6.24,14.11-26.23,19-34.09-5.7-6.25-36.34-43.7-46.53-57.94-17.74-24.79-26.35-39.49-41.69-54.08-5-4.8-18.4-17.33-37.09-25.33-38.67-16.54-74.79-2.86-88.88,3.56l67.58,147-27.92,24L671.62,620.59l-9.85-17.2a164.25,164.25,0,0,0-286.63,2l-9.24,15.24L299.74,752.76l-27.91-24,67.58-147c-14.1-6.42-50.22-20.1-88.89-3.56-18.69,8-32.06,20.53-37.09,25.33-15,15-24.2,27.85-41.69,54.08-8.91,14.62-25.37,41.35-40.89,66.63,5.3,6.92,15.67,29,26,40.89,27.93,32.24,84.8,102.23,184,144.07,6.81,2.87,133.72,54.47,276.31,21,7.3-1.72,46.49-11.14,94.94-32.57,58.41-25.84,97.94-54.84,111.5-65.13C844.56,812.11,854.38,796.94,869.29,781.27Z"/><polygon class="cls-3" points="243.72 655.24 220.29 827.97 202.24 818.03 188.79 799.18 243.72 655.24"/><polygon class="cls-4" points="271.84 728.76 243.72 655.24 220.29 827.97 271.84 728.76"/><polygon class="cls-5" points="187.6 803.24 243.72 655.24 196.11 622.41 125.69 714.96 125.69 714.96 148.01 754.96 187.6 803.24"/><polygon class="cls-4" points="339.42 581.72 303.73 659.38 243.72 655.24 339.42 581.72"/><polygon class="cls-3" points="339.42 581.72 196.11 622.41 243.72 655.24 339.42 581.72"/><path class="cls-4" d="M246.09,608.22l22.63-35.8c-1.25.25-2.54.57-3.86.89a86.76,86.76,0,0,0-17.33,6.2Z"/><path class="cls-6" d="M271.84,728.76l31.89-69.39c-1.26.25-60-4.13-60-4.13h0Z"/><path class="cls-6" d="M247.53,579.51l-1.44,28.71-50,14.19c1.2-1.57,4.41-4.86,5.72-6.46A139.22,139.22,0,0,1,231.07,589a111.92,111.92,0,0,1,11.74-7.14Z"/><circle class="cls-5" cx="289.99" cy="487.48" r="50.89"/><circle class="cls-6" cx="727.68" cy="487.48" r="50.89"/><circle class="cls-2" cx="518.56" cy="408.49" r="94.95"/><path class="cls-7" d="M531.63,490.22a84.09,84.09,0,0,1-37.19-5.16,90.42,90.42,0,0,1-52.6-52.6,83.81,83.81,0,0,1-5.16-37.19A110.4,110.4,0,0,0,446,430.76,101,101,0,0,0,496.14,481,109.89,109.89,0,0,0,531.63,490.22Z"/><polygon class="cls-3" points="793.81 655.25 818.36 830.14 835.3 818.04 850.8 802.24 793.81 655.25"/><polygon class="cls-7" points="765.7 728.77 793.81 655.25 818.36 830.14 765.7 728.77"/><path class="cls-6" d="M850.38,802.69,793.81,655.25l45.69-34.56L911.84,715l.47.55L904.68,731l-2.88,5.17c-1.27,2.29-2.65,4.52-4.12,6.7L889.52,755Z"/><path class="cls-4" d="M297.45,527.17a37.88,37.88,0,0,1-19-1.56,43.35,43.35,0,0,1-26.9-26.89,37.7,37.7,0,0,1-1.56-19A66.24,66.24,0,0,0,255.65,497a54.38,54.38,0,0,0,24.49,24.5A66,66,0,0,0,297.45,527.17Z"/><path class="cls-1" d="M735.3,527.17a37.92,37.92,0,0,1-19-1.56,43.35,43.35,0,0,1-26.9-26.89,37.81,37.81,0,0,1-1.56-19A65.89,65.89,0,0,0,693.5,497,54.3,54.3,0,0,0,718,521.51,65.93,65.93,0,0,0,735.3,527.17Z"/><path class="cls-3" d="M74.62,572.16a460,460,0,0,1,.77-147.83A453.74,453.74,0,0,1,335.5,87.06,447.62,447.62,0,0,1,477,49.38a453.91,453.91,0,0,1,145.8,9.51A432,432,0,0,1,757.31,115a461.79,461.79,0,0,1,108.83,96.49,460.82,460.82,0,0,0-110-94.68A429.07,429.07,0,0,0,621.89,63a448.59,448.59,0,0,0-144.21-7.31A440.92,440.92,0,0,0,91.4,569.38Z"/><path class="cls-4" d="M297.48,106.81a450.18,450.18,0,0,1,87.75-36.89,444.06,444.06,0,0,1,93.11-17.48,443.45,443.45,0,0,0-176.58,61.72Z"/><path class="cls-8" d="M83,570.77a444.29,444.29,0,0,0,66.52,170.71A449.55,449.55,0,0,0,287.9,877a454.71,454.71,0,0,0,87.14,42c59.83,21.4,113.9,24.8,149.08,25.46"/><path class="cls-5" d="M167.67,217.93l7.17,9.72c-2.32,3.18-9.48,12.85-13.4,18.68-16.53,24.61-41.33,65.34-57.92,120.89-7.83,26.21-16.41,64.67-18.23,113.87l-15.37-8.27c.14-4.09,1.28-15.64,2.14-24.15,2.07-20.73,6.22-85.3,54.61-170A513.72,513.72,0,0,1,164,222.59Z"/><path class="cls-2" d="M125.22,281.23,140.67,280c-4.53,8-10.71,19.81-13.16,25.29C114.94,333.31,113.77,337.5,111,345c-1.59,4.27-3.88,10.76-4.59,13.07L94.62,346.91c1.25-3.5,3.7-9.6,5.12-13.16a365.8,365.8,0,0,1,17-36.72Z"/><path class="cls-7" d="M241.24,854.46l5.68-17.32c.62.5,4.7,3.85,5.89,4.78,7.16,5.58,9.42,7.35,20.8,15.41,4.75,3.37,6.89,4.64,14.83,9.92l4.89,3-17.93,8.77-8.25-5.51c-7.76-5.32-11.87-8.14-18.84-13.62Z"/><polygon class="cls-4" points="698.12 581.73 733.8 659.38 793.81 655.25 698.12 581.73"/><polygon class="cls-7" points="698.12 581.73 839.5 620.69 793.81 655.25 698.12 581.73"/><path class="cls-4" d="M791.41,607.44l-22.6-35c1.25.25,2.54.57,3.87.9a86.65,86.65,0,0,1,17.32,6.2Z"/><path class="cls-6" d="M765.7,728.77l-31.9-69.39c1.26.25,60-4.13,60-4.13h0Z"/><path class="cls-6" d="M790,579.52l1.41,27.92,48.09,13.25c-1.21-1.58-2.49-3.13-3.8-4.73a139.54,139.54,0,0,0-29.23-27,114,114,0,0,0-11.75-7.14Z"/><path class="cls-3" d="M912.31,715.52c-2,4.5-4.1,9-6.26,13.41A144.09,144.09,0,0,1,899,742q-7.87,12.56-16.65,24.53a469.23,469.23,0,0,1-81.65,86c-7.71,6.27-15.59,12.33-23.73,18-4,3-8.19,5.66-12.3,8.47-2.06,1.39-4.18,2.7-6.27,4.05s-4.18,2.71-6.32,4a439.14,439.14,0,0,1-109.3,48.17,460.64,460.64,0,0,1-118.66,17.67v-17a445.93,445.93,0,0,0,115.36-13,429.42,429.42,0,0,0,108.29-43.16c2.14-1.17,4.23-2.44,6.34-3.68s4.22-2.46,6.29-3.75c4.13-2.61,8.33-5.13,12.37-7.88,8.21-5.32,16.18-11,24-16.91a464.6,464.6,0,0,0,83.91-82.28c6.08-7.74,11.92-15.67,17.45-23.82a143.93,143.93,0,0,0,7.46-12.72C907.9,724.35,910.12,719.94,912.31,715.52Z"/></g></svg>