<svg xmlns="http://www.w3.org/2000/svg" viewBox="0 0 1000 1000"><defs><style>.cls-1{fill:#fff;}.cls-10,.cls-12,.cls-2,.cls-3,.cls-4,.cls-7,.cls-8,.cls-9{fill:none;stroke-miterlimit:10;}.cls-2{stroke:#a4ada7;}.cls-2,.cls-3,.cls-4,.cls-7,.cls-8{stroke-width:5.67px;}.cls-10,.cls-3{stroke:#da707a;}.cls-4{stroke:#929596;}.cls-5{fill:#585858;}.cls-6{fill:#929596;}.cls-12,.cls-7{stroke:#c52e3b;}.cls-8,.cls-9{stroke:#585858;}.cls-10,.cls-12,.cls-9{stroke-width:17.01px;}.cls-11{fill:#da707a;}.cls-13{fill:#c52e3b;}.cls-14{fill:#e7a5aa;}</style></defs><g id="Layer_3" data-name="Layer 3"><ellipse class="cls-1" cx="504.77" cy="511.71" rx="458.09" ry="461.74"/><polyline class="cls-2" points="390.71 462.16 390.71 493.8 443.16 575.13"/><polyline class="cls-3" points="467.65 389.95 467.65 469.89 443.16 493.8 443.16 728.99"/><polyline class="cls-4" points="620.41 461.66 620.41 494.35 565.36 574.58"/><path class="cls-5" d="M628.82,796.38c-45.94,1.24-91.88,2-137.82,2.76l-68.91.93-17.23.22-8.61.08-2.15,0h-1.61l-.42,0a11.81,11.81,0,0,0-1.68.17l-.83.13-.81.23a14.39,14.39,0,0,0-8.49,21.36,14.14,14.14,0,0,0,4.56,4.64,14.38,14.38,0,0,0,6.11,2.1c.54,0,1.07,0,1.63.08l2.16,0,4.3,0,8.62-.08,34.45-.22,68.91-.4c23-.14,45.94-.12,68.91-.18l34.45-.07h5.11l.35,0,1.4.06a23.56,23.56,0,0,1,2.77.35,24.09,24.09,0,0,1,10.16,4.5,24.23,24.23,0,0,1,0,38.73A24,24,0,0,1,624,876.3a26.39,26.39,0,0,1-2.78.35l-1.4.06-.35,0h-5.11l-34.45-.07L511,876.48l-68.91-.4-34.45-.21-8.62-.09-4.3,0-2.16,0c-.56,0-1.09,0-1.63.08a14.34,14.34,0,0,0-6.1,2.1,14.11,14.11,0,0,0-4.56,4.63,14.39,14.39,0,0,0-1.1,12.7,14.55,14.55,0,0,0,9.58,8.64l.81.22.83.14a11.81,11.81,0,0,0,1.68.17l.42,0h1.61l2.15,0,8.61.08,17.23.21,68.91.93c45.94.78,91.88,1.53,137.82,2.79-45.94,1.26-91.88,2-137.82,2.78l-68.91.93-17.23.21-8.61.09-2.15,0h-1.63l-.65,0a20.86,20.86,0,0,1-2.61-.21l-1.29-.2-1.28-.31a23,23,0,0,1-6.71-41.44,23.33,23.33,0,0,1,10-3.66c.88-.11,1.79-.13,2.66-.18l2.16,0,4.3,0,8.62-.09,34.45-.21,68.91-.4,68.91-.17,34.45-.07h5.3l.76,0a12.38,12.38,0,0,0,1.49-.19,12.86,12.86,0,0,0,5.43-2.44,13,13,0,0,0,0-20.77,12.62,12.62,0,0,0-5.43-2.44,12.38,12.38,0,0,0-1.49-.19l-.76,0-.19,0h-5.11l-34.45-.06c-23-.07-45.94,0-68.91-.18l-68.91-.4-34.45-.22L399,838.4l-4.3,0-2.16,0c-.87,0-1.78-.07-2.66-.17a23.56,23.56,0,0,1-10-3.66,22.94,22.94,0,0,1,6.7-41.41l1.28-.31,1.3-.2a18.86,18.86,0,0,1,2.6-.21l.65,0h1.63l2.15,0,8.61.08,17.23.22,68.91.93C536.94,794.38,582.88,795.13,628.82,796.38Z"/><path class="cls-6" d="M628.82,796.38,491,797.06l-68.91.21-17.23.05-8.61,0c-1.42,0-2.9,0-4.27,0a13.68,13.68,0,0,0-2,.19l-1,.15-1,.26a17.62,17.62,0,0,0-10.55,26A17.49,17.49,0,0,0,383,829.8a17.86,17.86,0,0,0,7.56,2.69c.67.07,1.35.07,2,.11h2.16l4.3,0,8.62,0,34.45,0,68.91-.07,68.91-.06,34.45,0h4.31c.69,0,1.48,0,2.25.07a19.75,19.75,0,0,1,10.67,4,20,20,0,0,1,0,32,19.65,19.65,0,0,1-8.38,3.72,17.7,17.7,0,0,1-2.29.29c-.77,0-1.56.09-2.25.07h-4.31l-34.45,0L511,872.4l-68.91-.07-34.45,0-8.62,0h-6.46c-.67,0-1.35,0-2,.12a17.75,17.75,0,0,0-7.55,2.68,17.23,17.23,0,0,0-5.58,5.78,17.59,17.59,0,0,0,10.54,26l1,.26,1,.16a15.17,15.17,0,0,0,2,.19c1.37.06,2.85,0,4.27,0l8.61,0,17.23.05,68.91.2,137.82.7L491,909.17l-68.91.2-17.23,0-8.61,0c-1.45,0-2.84,0-4.33,0a17.09,17.09,0,0,1-2.26-.2l-1.12-.17-1.1-.28a19.73,19.73,0,0,1-5.67-35.6,20.18,20.18,0,0,1,8.52-3.08c.75-.08,1.52-.09,2.27-.14H399l8.62,0,34.45,0,68.91-.06,68.91-.06,34.45,0h4.31a22,22,0,0,0,4-.32,17,17,0,0,0,7.2-3.22,17.25,17.25,0,0,0,0-27.51,16.89,16.89,0,0,0-7.2-3.22,22,22,0,0,0-4-.32h-4.31l-34.45,0L511,835,442.09,835l-34.45-.05-8.62,0h-6.46c-.75,0-1.52-.06-2.27-.14a20.08,20.08,0,0,1-8.51-3.07,19.52,19.52,0,0,1-6.24-6.54,19.69,19.69,0,0,1,11.9-29.06l1.1-.28,1.12-.17a15.54,15.54,0,0,1,2.26-.19c1.49-.06,2.88,0,4.33,0l8.61,0,17.23,0,68.91.21Z"/><circle class="cls-5" cx="529.74" cy="312.46" r="26.93"/><path class="cls-6" d="M519.9,293.24a21.71,21.71,0,0,1,10.72-1.09,24.67,24.67,0,0,1,17.84,11.9,21.66,21.66,0,0,1,3.11,10.32,36.18,36.18,0,0,0-4.94-9.09,30.34,30.34,0,0,0-16.44-11A36,36,0,0,0,519.9,293.24Z"/><circle class="cls-5" cx="620.41" cy="436.65" r="26.93"/><path class="cls-6" d="M610.57,417.43a21.71,21.71,0,0,1,10.72-1.09,24.67,24.67,0,0,1,17.84,11.9,21.66,21.66,0,0,1,3.11,10.32,36.18,36.18,0,0,0-4.94-9.09,30.34,30.34,0,0,0-16.44-11A36,36,0,0,0,610.57,417.43Z"/><circle class="cls-5" cx="390.72" cy="436.65" r="26.93"/><path class="cls-6" d="M380.87,417.43a21.72,21.72,0,0,1,10.72-1.09,24.72,24.72,0,0,1,17.85,11.9,21.89,21.89,0,0,1,3.11,10.32,36.53,36.53,0,0,0-4.95-9.09,30.34,30.34,0,0,0-16.44-11A36,36,0,0,0,380.87,417.43Z"/><circle class="cls-5" cx="467.65" cy="364.85" r="26.93"/><path class="cls-6" d="M457.8,345.63a22,22,0,0,1,10.72-1.09,24.79,24.79,0,0,1,17.85,11.9,21.92,21.92,0,0,1,3.11,10.32,36.47,36.47,0,0,0-5-9.08,30.2,30.2,0,0,0-16.44-11A36,36,0,0,0,457.8,345.63Z"/><circle class="cls-5" cx="502.82" cy="559.76" r="26.93"/><path class="cls-6" d="M493,540.54a22,22,0,0,1,10.72-1.09,24.72,24.72,0,0,1,17.85,11.9,21.89,21.89,0,0,1,3.11,10.32,36.53,36.53,0,0,0-4.95-9.09,30.34,30.34,0,0,0-16.44-11A36,36,0,0,0,493,540.54Z"/><polyline class="cls-7" points="529.74 336.01 529.74 467.42 565.36 503.04 565.36 728.44"/><line class="cls-8" x1="502.82" y1="585.75" x2="502.82" y2="728.99"/><path class="cls-5" d="M501.2,196.51a237.5,237.5,0,0,1,49.41,5.24,232.84,232.84,0,0,1,24,6.7c2,.67,3.91,1.42,5.86,2.13l2.93,1.08,2.88,1.19,5.77,2.4,5.65,2.65A211.65,211.65,0,0,1,640,244.45c1.62,1.31,3.27,2.6,4.86,3.94l4.7,4.14c.77.7,1.57,1.37,2.33,2.09l2.26,2.16c1.5,1.46,3,2.88,4.51,4.36a238.51,238.51,0,0,1,16.65,18.72,204.48,204.48,0,0,1,41.1,90.7,237.76,237.76,0,0,1,3.27,24.91c.67,8.35,1,16.67,1.23,25,.55,16.65,0,33.53-2.62,50.15a208.65,208.65,0,0,1-5.39,24.67,214.77,214.77,0,0,1-8.5,23.81c-6.75,15.48-15.27,29.94-24.18,44-4.49,7-9,14-13.79,20.81l-7.08,10.31c-1.18,1.76-2.36,3.35-3.5,5s-2.25,3.37-3.34,5.08a181.45,181.45,0,0,0-11.61,21.36c-1.68,3.68-3.3,7.45-4.65,11.16A95.5,95.5,0,0,0,631,660.06c-.18,2-.33,4-.39,5.94s-.06,4-.06,6.06l0,24.86v8.55l0,.9a25,25,0,0,1-.31,3.56,30.72,30.72,0,0,1-5.23,13.2,32.07,32.07,0,0,1-10.56,9.5,31.35,31.35,0,0,1-13.7,3.75l-99.57.16-99.56-.15a31.4,31.4,0,0,1-13.71-3.76,31.85,31.85,0,0,1-10.56-9.5,30.58,30.58,0,0,1-5.22-13.2,25.05,25.05,0,0,1-.32-3.56l0-.9v-8.55l0-24.86c0-2.1,0-4.08-.07-6.06s-.21-4-.39-5.94a99.75,99.75,0,0,0-1.88-11.77,97.14,97.14,0,0,0-3.33-11.44c-1.35-3.71-3-7.47-4.65-11.15a180.66,180.66,0,0,0-11.61-21.36c-1.09-1.71-2.19-3.41-3.34-5.08s-2.32-3.29-3.5-5L336,583.91c-4.79-6.86-9.3-13.78-13.78-20.82-8.92-14.07-17.44-28.54-24.19-44a212.21,212.21,0,0,1-8.5-23.82,208.65,208.65,0,0,1-5.39-24.67c-2.65-16.62-3.17-33.5-2.62-50.15.28-8.3.56-16.62,1.23-25A241,241,0,0,1,286,370.55a204.41,204.41,0,0,1,41.11-90.69,236.87,236.87,0,0,1,16.65-18.73c1.47-1.48,3-2.9,4.51-4.35l2.26-2.17c.76-.71,1.56-1.39,2.34-2.08l4.69-4.14c1.6-1.35,3.24-2.63,4.86-3.95a211.44,211.44,0,0,1,42.27-26.54l5.66-2.65,5.76-2.4,2.88-1.2,2.93-1.08c2-.71,3.9-1.45,5.87-2.13a232.84,232.84,0,0,1,24-6.7,238.1,238.1,0,0,1,49.41-5.23c-33.1.92-66.07,8.54-95.48,23.5l-2.77,1.37-2.71,1.49-5.41,3c-3.53,2.11-7,4.28-10.52,6.46l-5.09,3.49c-1.69,1.17-3.41,2.3-5,3.58-3.26,2.5-6.59,4.91-9.7,7.61-1.57,1.33-3.17,2.62-4.71,4l-4.55,4.15c-.76.7-1.53,1.38-2.27,2.09l-2.18,2.17c-1.45,1.46-2.94,2.88-4.35,4.36a235.1,235.1,0,0,0-16,18.68,199.85,199.85,0,0,0-38.91,89.11c-1.4,8.06-2.29,16.21-2.88,24.38s-.77,16.42-1,24.69c-.38,16.45.3,32.84,3,48.93a201.65,201.65,0,0,0,5.45,23.81,206.87,206.87,0,0,0,8.42,22.88c6.63,14.86,15,29,23.93,42.86,4.46,6.91,9,13.84,13.78,20.54l7,10.13c1.14,1.68,2.44,3.4,3.62,5.14s2.37,3.5,3.52,5.28a190.84,190.84,0,0,1,12.24,22.2c1.78,3.85,3.47,7.68,5,11.76a102.35,102.35,0,0,1,3.69,12.38,107.46,107.46,0,0,1,2.12,12.74c.21,2.15.37,4.3.44,6.45s.08,4.33.09,6.36l0,24.86v7.76c0,.25,0,.54,0,.76l0,.66a17.61,17.61,0,0,0,.25,2.62,22.38,22.38,0,0,0,3.84,9.68,23.67,23.67,0,0,0,7.77,7,22.94,22.94,0,0,0,10.05,2.72l99.24,0,99.25.05a23.07,23.07,0,0,0,10.05-2.72,23.81,23.81,0,0,0,7.77-7,22.39,22.39,0,0,0,3.85-9.68,17.6,17.6,0,0,0,.24-2.62l0-.66c0-.22,0-.51,0-.76v-7.76l0-24.86c0-2,0-4.2.09-6.36s.25-4.3.45-6.45a107.81,107.81,0,0,1,2.12-12.74,102.35,102.35,0,0,1,3.69-12.38c1.5-4.07,3.19-7.91,5-11.75A191.79,191.79,0,0,1,646,600.17c1.15-1.77,2.31-3.54,3.52-5.27s2.48-3.47,3.62-5.15l7-10.13c4.74-6.7,9.32-13.63,13.78-20.54,8.9-13.84,17.29-28,23.93-42.86a205.39,205.39,0,0,0,8.42-22.88,201.65,201.65,0,0,0,5.45-23.81c2.73-16.09,3.41-32.48,3-48.93-.19-8.27-.39-16.51-1-24.69s-1.48-16.32-2.88-24.38A200,200,0,0,0,672,282.42a233.63,233.63,0,0,0-16-18.68c-1.42-1.49-2.9-2.91-4.35-4.36l-2.19-2.17c-.73-.72-1.51-1.4-2.26-2.09L642.62,251c-1.54-1.36-3.14-2.65-4.71-4-3.1-2.7-6.44-5.12-9.7-7.62-1.61-1.28-3.34-2.41-5-3.57l-5.09-3.5c-1.72-1.11-3.5-2.16-5.24-3.25s-3.49-2.19-5.28-3.2l-5.41-3-2.71-1.48L596.68,220C567.27,205.05,534.3,197.43,501.2,196.51Z"/><path class="cls-9" d="M857.32,219.5A457.22,457.22,0,0,1,964,513.61"/><path class="cls-10" d="M52.73,589a463,463,0,0,1-6.17-75.43A458.64,458.64,0,0,1,857.32,219.5"/><path class="cls-11" d="M960.64,618.68A463.61,463.61,0,0,1,913,737.44a468.35,468.35,0,0,1-77.73,100.87,457.28,457.28,0,0,1-48.3,41.4c-8.51,6.33-17.3,12.27-26.25,17.91s-18.11,11-27.44,16a444.38,444.38,0,0,1-57.82,25.79,32,32,0,0,1-15.84,2.14,26.45,26.45,0,0,1-7.74-2.19,30,30,0,0,1-6.73-4.31,50.13,50.13,0,0,1-10.26-12,59,59,0,0,1-3.75-7c-.54-1.2-1-2.42-1.47-3.67a14.13,14.13,0,0,1-.85-3.84,13.59,13.59,0,0,0,.95,3.8c.46,1.24,1,2.44,1.56,3.62a57.61,57.61,0,0,0,3.92,6.82,49.23,49.23,0,0,0,10.43,11.62,26,26,0,0,0,14.09,5.87,30.42,30.42,0,0,0,15-2.57,440.68,440.68,0,0,0,56.53-27.57q13.6-7.89,26.6-16.71c8.66-5.88,17.11-12,25.28-18.55a447.55,447.55,0,0,0,46.1-42.34,457.21,457.21,0,0,0,72.58-101.14,448.94,448.94,0,0,0,42.18-116.46Z"/><path class="cls-12" d="M275,116.82A455.73,455.73,0,0,1,445.67,58.73q6.3-.81,12.64-1.46"/><path class="cls-13" d="M61.12,587.65A462.29,462.29,0,0,0,73,642.92c.6,2.29,1.31,4.54,2,6.8L77,656.5l2.21,6.73c.75,2.24,1.46,4.49,2.29,6.7,1.6,4.45,3.15,8.91,4.91,13.3l2.58,6.6,2.74,6.54a441.21,441.21,0,0,0,25.38,50.78c2.33,4.13,4.86,8.13,7.33,12.18s5.14,8,7.7,12,5.35,7.84,8.11,11.7l4.19,5.75,2.1,2.88,2.18,2.82a464.18,464.18,0,0,0,37.32,43.08,453.85,453.85,0,0,0,42.51,38.15,454,454,0,0,0,97.83,59.2l-.09,0,8.34,3.08a33.82,33.82,0,0,0,8.37,2.26,26,26,0,0,0,16.71-3.33,43.6,43.6,0,0,0,12.6-12.1,68.1,68.1,0,0,0,4.69-7.49,45.23,45.23,0,0,0,3.55-8.1,44.26,44.26,0,0,1-3.35,8.2,69.19,69.19,0,0,1-4.52,7.65,44.29,44.29,0,0,1-12.5,12.61,29.21,29.21,0,0,1-4,2.07,27.33,27.33,0,0,1-4.32,1.34,29,29,0,0,1-9,.55,36.69,36.69,0,0,1-8.78-2.05l-8.51-2.46h0l-.07,0a459,459,0,0,1-52-25.08,465.57,465.57,0,0,1-48.54-31.5,460.1,460.1,0,0,1-44.36-37.33,474,474,0,0,1-39.42-42.68l-2.31-2.81-2.24-2.86L132.11,789c-3-3.86-5.79-7.79-8.67-11.7s-5.6-7.94-8.27-12-5.38-8.09-7.9-12.24a454.55,454.55,0,0,1-27.73-51.32l-3-6.64-2.87-6.72c-2-4.46-3.7-9-5.5-13.54-.92-2.26-1.74-4.55-2.58-6.84L63,661.16l-2.33-6.94c-.77-2.31-1.58-4.61-2.27-7a479,479,0,0,1-14.1-56.84Z"/><path class="cls-12" d="M964,513.61a460.2,460.2,0,0,1-11.65,103.17"/><path class="cls-6" d="M279.75,915.42l4.51-2-1.78-1c-2.86-1.69-6.65-4-11.09-6.73-1.75-1.09-5-3.06-8.47-5.38-8.52-5.68-15.35-10.39-24.25-16.91-3.17-2.32-5.57-4.23-7.57-5.72l-1.94,5.84,1.38,1a344.74,344.74,0,0,0,47,29.65Z"/><path class="cls-14" d="M901.62,756.29l-11.11-4.7,55.55-85.15c-1.11,3-2.61,7-4.45,11.67a477.61,477.61,0,0,1-31.28,64.56c-2.44,4.21-5.11,7.83-6.93,10.79Z"/><path class="cls-13" d="M823.24,849.71l-6.89-4.13,29.76-18.3c-.15.15-1.23,1.48-1.39,1.64-6.69,6.66-11.16,11.08-18,17.64Z"/><path class="cls-14" d="M140.56,221.44l10.31,14.47c-2.41,3.15-13,17.62-17,23.42-16.1,23.58-38.82,59.4-54.67,108.56C70.59,394.68,58.67,439.13,55.73,489l-16.51-9.27c.23-4.1,1.11-15.3,2.28-23.94C44.79,431.49,51.89,367.89,99,283.33c7.41-13.29,17.68-31.86,34.77-53.14Z"/><path class="cls-14" d="M446,67.44a460.77,460.77,0,0,1,99.19-2.28c2.23.18,4.57.43,6.75.62l7.57-16.36-1.24-.18c-9.33-1.14-17-1.91-22.1-2.2a498.43,498.43,0,0,0-89.67,3c-1.36.15-3.24.46-3.86.56l-4.08,17.83Z"/><path class="cls-5" d="M95.74,288.47l18.82,1.24c-4.47,8-8.39,15.27-11.12,20.79-14,28.36-15.83,35.26-21,48.17-1.69,4.24-2.33,6.75-3.22,9.22L65.56,355.31c1.32-3.49,4.09-11.19,5.55-14.75,6-14.55,10.42-24.43,16.45-36.67Z"/></g></svg>