<svg xmlns="http://www.w3.org/2000/svg" xmlns:xlink="http://www.w3.org/1999/xlink" width="60" zoomAndPan="magnify" viewBox="0 0 45 44.999999" height="60" preserveAspectRatio="xMidYMid meet" version="1.0"><defs><clipPath id="58dff68269"><path d="M 25 24 L 42.300781 24 L 42.300781 43 L 25 43 Z M 25 24 " clip-rule="nonzero"/></clipPath><clipPath id="8fb66119ed"><path d="M 25 32 L 38 32 L 38 43.742188 L 25 43.742188 Z M 25 32 " clip-rule="nonzero"/></clipPath><clipPath id="f40e8685f9"><path d="M 31 6 L 42.300781 6 L 42.300781 19 L 31 19 Z M 31 6 " clip-rule="nonzero"/></clipPath><clipPath id="31d3c68c95"><path d="M 2.550781 24 L 13 24 L 13 36 L 2.550781 36 Z M 2.550781 24 " clip-rule="nonzero"/></clipPath></defs><path fill="#be1e2e" d="M 26.765625 3.863281 C 26.316406 3.769531 25.878906 4.054688 25.78125 4.503906 C 25.691406 4.953125 25.980469 5.394531 26.429688 5.484375 C 29.609375 6.15625 32.484375 7.660156 34.808594 9.769531 C 37.148438 11.886719 38.925781 14.613281 39.894531 17.695312 C 40.023438 18.132812 40.492188 18.378906 40.933594 18.242188 C 41.371094 18.101562 41.617188 17.636719 41.476562 17.199219 C 40.421875 13.832031 38.484375 10.851562 35.929688 8.539062 C 33.390625 6.242188 30.246094 4.59375 26.765625 3.863281 Z M 26.765625 3.863281 " fill-opacity="1" fill-rule="nonzero"/><path fill="#a6ada6" d="M 3.929688 17.199219 C 3.792969 17.636719 4.039062 18.101562 4.476562 18.242188 C 4.914062 18.378906 5.382812 18.132812 5.523438 17.695312 C 6.488281 14.613281 8.265625 11.886719 10.601562 9.769531 C 12.921875 7.660156 15.796875 6.15625 18.984375 5.484375 C 19.4375 5.394531 19.722656 4.953125 19.628906 4.503906 C 19.539062 4.054688 19.09375 3.769531 18.644531 3.863281 C 15.164062 4.59375 12.015625 6.242188 9.484375 8.539062 C 6.925781 10.851562 4.988281 13.832031 3.929688 17.199219 Z M 3.929688 17.199219 " fill-opacity="1" fill-rule="nonzero"/><path fill="#a6ada6" d="M 9.695312 1.128906 C 9.253906 1 8.792969 1.253906 8.660156 1.691406 C 8.535156 2.132812 8.789062 2.59375 9.226562 2.71875 L 17.195312 5.066406 L 11.175781 10.78125 C 10.847656 11.097656 10.835938 11.625 11.144531 11.953125 C 11.464844 12.289062 11.992188 12.300781 12.324219 11.984375 L 19.347656 5.320312 C 19.472656 5.21875 19.566406 5.074219 19.617188 4.910156 C 19.75 4.46875 19.496094 4.007812 19.050781 3.875 L 18.816406 4.679688 L 19.050781 3.882812 Z M 9.695312 1.128906 " fill-opacity="1" fill-rule="nonzero"/><g clip-path="url(#58dff68269)"><path fill="#a6ada6" d="M 42.246094 25.300781 C 42.300781 24.84375 41.96875 24.433594 41.515625 24.382812 C 41.050781 24.328125 40.644531 24.660156 40.59375 25.113281 C 40.15625 28.957031 38.5 32.429688 36.023438 35.148438 C 33.523438 37.886719 30.191406 39.851562 26.429688 40.640625 C 25.980469 40.730469 25.691406 41.167969 25.78125 41.617188 C 25.878906 42.066406 26.316406 42.351562 26.765625 42.261719 C 30.882812 41.402344 34.527344 39.25 37.253906 36.265625 C 39.960938 33.300781 41.765625 29.496094 42.246094 25.300781 Z M 42.246094 25.300781 " fill-opacity="1" fill-rule="nonzero"/></g><g clip-path="url(#8fb66119ed)"><path fill="#a6ada6" d="M 33.285156 34.316406 C 33.574219 33.957031 33.507812 33.4375 33.144531 33.15625 C 32.785156 32.867188 32.265625 32.933594 31.976562 33.292969 L 25.941406 40.933594 C 25.65625 41.292969 25.722656 41.820312 26.082031 42.101562 C 26.214844 42.210938 26.371094 42.261719 26.523438 42.28125 L 36.128906 43.664062 C 36.585938 43.730469 37.007812 43.414062 37.070312 42.957031 C 37.136719 42.503906 36.820312 42.082031 36.363281 42.019531 L 28.140625 40.832031 Z M 33.285156 34.316406 " fill-opacity="1" fill-rule="nonzero"/></g><g clip-path="url(#f40e8685f9)"><path fill="#be1e2e" d="M 42.101562 7.785156 C 42.125 7.324219 41.777344 6.933594 41.316406 6.90625 C 40.859375 6.882812 40.464844 7.230469 40.441406 7.683594 L 39.941406 15.960938 L 33.003906 11.394531 C 32.625 11.140625 32.109375 11.246094 31.851562 11.628906 C 31.597656 12.007812 31.707031 12.523438 32.082031 12.78125 L 40.179688 18.109375 C 40.308594 18.203125 40.464844 18.265625 40.636719 18.277344 C 41.09375 18.304688 41.488281 17.953125 41.519531 17.496094 L 40.6875 17.445312 L 41.515625 17.496094 Z M 42.101562 7.785156 " fill-opacity="1" fill-rule="nonzero"/></g><path fill="#be1e2e" d="M 18.644531 42.261719 C 19.09375 42.351562 19.539062 42.066406 19.628906 41.617188 C 19.722656 41.167969 19.4375 40.730469 18.984375 40.640625 C 15.222656 39.851562 11.882812 37.886719 9.386719 35.148438 C 6.910156 32.429688 5.257812 28.957031 4.820312 25.113281 C 4.769531 24.660156 4.355469 24.328125 3.902344 24.382812 C 3.445312 24.433594 3.113281 24.84375 3.164062 25.300781 C 3.644531 29.496094 5.449219 33.300781 8.15625 36.265625 C 10.886719 39.25 14.53125 41.402344 18.644531 42.261719 Z M 18.644531 42.261719 " fill-opacity="1" fill-rule="nonzero"/><g clip-path="url(#31d3c68c95)"><path fill="#be1e2e" d="M 2.574219 34.867188 C 2.550781 35.328125 2.898438 35.71875 3.359375 35.75 C 3.816406 35.773438 4.214844 35.425781 4.238281 34.96875 L 4.734375 26.6875 L 11.675781 31.257812 C 12.050781 31.507812 12.570312 31.40625 12.828125 31.023438 C 13.078125 30.640625 12.972656 30.125 12.59375 29.875 L 4.496094 24.546875 C 4.371094 24.449219 4.214844 24.390625 4.039062 24.378906 C 3.582031 24.347656 3.1875 24.703125 3.15625 25.15625 L 3.992188 25.203125 L 3.164062 25.15625 Z M 2.574219 34.867188 " fill-opacity="1" fill-rule="nonzero"/></g><path fill="#595959" d="M 20.367188 12.484375 L 24.464844 12.484375 L 24.464844 15.523438 C 24.941406 15.664062 25.398438 15.855469 25.828125 16.089844 L 27.984375 13.933594 L 30.882812 16.828125 L 28.726562 18.984375 C 28.957031 19.40625 29.148438 19.863281 29.292969 20.34375 L 32.34375 20.34375 L 32.34375 24.433594 L 29.292969 24.433594 C 29.148438 24.90625 28.957031 25.359375 28.726562 25.792969 L 30.882812 27.941406 L 27.984375 30.832031 L 25.828125 28.683594 C 25.398438 28.910156 24.941406 29.101562 24.464844 29.246094 L 24.464844 32.289062 L 20.367188 32.289062 L 20.367188 29.246094 C 19.886719 29.101562 19.429688 28.910156 19.003906 28.683594 L 16.84375 30.832031 L 13.945312 27.941406 L 16.105469 25.792969 C 15.871094 25.359375 15.679688 24.90625 15.535156 24.433594 L 12.492188 24.433594 L 12.492188 20.34375 L 15.535156 20.34375 C 15.679688 19.863281 15.871094 19.40625 16.105469 18.976562 L 13.945312 16.828125 L 16.84375 13.933594 L 19.003906 16.089844 C 19.429688 15.855469 19.886719 15.664062 20.367188 15.523438 Z M 22.414062 18.019531 C 24.832031 18.019531 26.789062 19.972656 26.789062 22.382812 C 26.789062 24.796875 24.832031 26.75 22.414062 26.75 C 19.996094 26.75 18.039062 24.796875 18.039062 22.382812 C 18.039062 19.972656 19.996094 18.019531 22.414062 18.019531 Z M 22.414062 18.019531 " fill-opacity="1" fill-rule="evenodd"/></svg>